<mxfile host="app.diagrams.net" modified="2021-11-15T07:14:53.091Z" agent="5.0 (Macintosh; Intel Mac OS X 10_15_7) AppleWebKit/537.36 (KHTML, like Gecko) Chrome/95.0.4638.69 Safari/537.36 Edg/95.0.1020.44" etag="8xCkIpyGKrDWE-o3cgff" version="15.7.3" type="github">
  <diagram id="AIbWgkr7mKaR9OK53eJp" name="Page-1">
    <mxGraphModel dx="1380" dy="769" grid="1" gridSize="10" guides="1" tooltips="1" connect="1" arrows="1" fold="1" page="1" pageScale="1" pageWidth="850" pageHeight="1100" math="0" shadow="0">
      <root>
        <mxCell id="0" />
        <mxCell id="1" parent="0" />
        <mxCell id="8xh4s47zY1NM98TmLzVb-5" style="edgeStyle=orthogonalEdgeStyle;rounded=0;orthogonalLoop=1;jettySize=auto;html=1;exitX=1;exitY=0.5;exitDx=0;exitDy=0;" edge="1" parent="1" source="8xh4s47zY1NM98TmLzVb-1" target="8xh4s47zY1NM98TmLzVb-4">
          <mxGeometry relative="1" as="geometry" />
        </mxCell>
        <mxCell id="8xh4s47zY1NM98TmLzVb-1" value="" style="rounded=0;whiteSpace=wrap;html=1;" vertex="1" parent="1">
          <mxGeometry x="310" y="190" width="170" height="120" as="geometry" />
        </mxCell>
        <mxCell id="8xh4s47zY1NM98TmLzVb-2" value="Script VM" style="text;html=1;align=center;verticalAlign=middle;resizable=0;points=[];autosize=1;strokeColor=none;fillColor=none;" vertex="1" parent="1">
          <mxGeometry x="410" y="290" width="70" height="20" as="geometry" />
        </mxCell>
        <mxCell id="8xh4s47zY1NM98TmLzVb-4" value="Gas-Server" style="rounded=0;whiteSpace=wrap;html=1;" vertex="1" parent="1">
          <mxGeometry x="720" y="20" width="120" height="60" as="geometry" />
        </mxCell>
        <mxCell id="8xh4s47zY1NM98TmLzVb-6" value="1. Load Script&lt;br&gt;" style="text;html=1;align=center;verticalAlign=middle;resizable=0;points=[];autosize=1;strokeColor=none;fillColor=none;" vertex="1" parent="1">
          <mxGeometry x="600" y="250" width="90" height="20" as="geometry" />
        </mxCell>
        <mxCell id="8xh4s47zY1NM98TmLzVb-9" style="edgeStyle=orthogonalEdgeStyle;rounded=0;orthogonalLoop=1;jettySize=auto;html=1;exitX=1;exitY=0.5;exitDx=0;exitDy=0;entryX=0.5;entryY=0;entryDx=0;entryDy=0;" edge="1" parent="1" source="8xh4s47zY1NM98TmLzVb-8" target="8xh4s47zY1NM98TmLzVb-1">
          <mxGeometry relative="1" as="geometry" />
        </mxCell>
        <mxCell id="8xh4s47zY1NM98TmLzVb-10" value="2. Execute" style="edgeLabel;html=1;align=center;verticalAlign=middle;resizable=0;points=[];" vertex="1" connectable="0" parent="8xh4s47zY1NM98TmLzVb-9">
          <mxGeometry x="-0.1918" y="-1" relative="1" as="geometry">
            <mxPoint x="-9" y="9" as="offset" />
          </mxGeometry>
        </mxCell>
        <mxCell id="8xh4s47zY1NM98TmLzVb-8" value="Script Context" style="ellipse;whiteSpace=wrap;html=1;" vertex="1" parent="1">
          <mxGeometry x="60" y="90" width="120" height="80" as="geometry" />
        </mxCell>
      </root>
    </mxGraphModel>
  </diagram>
</mxfile>
